<?xml version="1.0" encoding="utf-8"?>
<!-- Generator: Adobe Illustrator 21.0.0, SVG Export Plug-In . SVG Version: 6.00 Build 0)  -->
<svg version="1.1" id="Layer_1" xmlns="http://www.w3.org/2000/svg" xmlns:xlink="http://www.w3.org/1999/xlink" x="0px" y="0px"
	 viewBox="0 0 742.6 271.5" style="enable-background:new 0 0 742.6 271.5;" xml:space="preserve">
<style type="text/css">
	.st0{fill:#0172F2;}
</style>
<g>
	<g>
		<g>
			<path class="st0" d="M0.5,22.9l0.2-2.3c1.4,0.9,3,1.3,5,1.3c0.9,0,1.8-0.2,2.6-0.5c0.8-0.3,1.4-0.8,1.8-1.5
				c0.4-0.7,0.7-1.5,0.7-2.6c0-1-0.4-1.8-1.2-2.4c-0.8-0.6-2.1-1.4-3.8-2.4c-1.8-1-3.1-1.9-4-2.8c-0.9-0.9-1.3-2-1.3-3.3
				c0-1.2,0.3-2.2,0.9-3.1C2,2.5,2.9,1.8,4,1.4c1.1-0.5,2.3-0.7,3.6-0.7c1.6,0,3.1,0.2,4.4,0.7l-0.4,2c-1-0.6-2.4-0.8-4.1-0.8
				C6.2,2.6,5,2.9,4.1,3.5c-1,0.6-1.4,1.6-1.4,2.9c0,1,0.4,1.8,1.1,2.3c0.8,0.6,2,1.3,3.8,2.3s3.1,1.9,4,2.8
				c0.9,0.9,1.4,2.1,1.4,3.6c0,1.4-0.4,2.6-1.1,3.6c-0.7,1-1.6,1.7-2.8,2.1c-1.1,0.4-2.3,0.7-3.5,0.7C3.7,23.9,2,23.6,0.5,22.9z"/>
			<path class="st0" d="M19.3,0v2.7h-2V0H19.3z M17.3,23.5V7.1h2v16.4H17.3z"/>
			<path class="st0" d="M24.4,23.5V11c0-1.7,0-3-0.1-3.9h2V10h0.1c0.4-1,1.1-1.8,1.8-2.4c0.8-0.6,2-0.9,3.5-0.9
				c1.9,0,3.3,0.6,4.2,1.7c0.9,1.1,1.4,2.7,1.4,4.6v10.5h-2v-10c0-3.4-1.3-5.1-3.9-5.1c-1.2,0-2.1,0.3-2.8,0.9
				c-0.7,0.6-1.3,1.3-1.6,2.2c-0.3,0.9-0.5,1.9-0.5,2.9v9.1H24.4z"/>
			<path class="st0" d="M53.2,7.3l-0.2,2c-1.3-0.6-2.4-0.8-3.5-0.8c-1.3,0-2.4,0.3-3.3,0.9c-0.9,0.6-1.6,1.4-2.1,2.4
				s-0.7,2.2-0.7,3.6c0,0.9,0.1,1.8,0.4,2.6c0.3,0.8,0.7,1.6,1.2,2.2s1.1,1.1,1.9,1.5c0.7,0.4,1.6,0.5,2.5,0.5
				c1.1,0,2.4-0.2,3.7-0.7l0.2,1.9c-1.1,0.4-2.5,0.6-4.2,0.6c-1.3,0-2.4-0.2-3.4-0.7s-1.8-1.1-2.5-1.9s-1.2-1.7-1.5-2.8
				c-0.3-1-0.5-2.1-0.5-3.3c0-1.7,0.3-3.1,1-4.5c0.7-1.3,1.6-2.3,2.9-3.1c1.2-0.7,2.6-1.1,4.2-1.1C50.6,6.7,51.9,6.9,53.2,7.3z"/>
			<path class="st0" d="M67.6,20.9V23c-1.5,0.6-3.1,0.9-4.8,0.9c-2.6,0-4.5-0.8-5.7-2.3s-1.8-3.6-1.8-6.3c0-1.7,0.3-3.1,0.9-4.4
				c0.6-1.3,1.4-2.3,2.4-3.1c1-0.7,2.3-1.1,3.6-1.1c2.2,0,3.8,0.8,4.9,2.3s1.6,3.5,1.6,5.9v1H57.6c0,1.2,0.2,2.3,0.6,3.2
				c0.4,1,1,1.7,1.8,2.3c0.8,0.5,1.8,0.8,2.9,0.8c0.7,0,1.5-0.1,2.5-0.4S67.1,21.3,67.6,20.9z M57.6,14.1h9c0-1-0.1-1.9-0.4-2.8
				c-0.3-0.9-0.7-1.6-1.4-2.1c-0.6-0.5-1.4-0.8-2.4-0.8s-1.8,0.3-2.5,0.8c-0.7,0.6-1.3,1.3-1.7,2.2C57.8,12.3,57.6,13.2,57.6,14.1z"
				/>
			<path class="st0" d="M83.1,5.3L88.2,1h2v22.5H88v-20l-3.6,3.2L83.1,5.3z"/>
			<path class="st0" d="M106,0.8c2.7,0,4.6,1,5.6,3s1.6,4.5,1.6,7.7c0,1.8-0.2,3.4-0.5,4.9c-0.4,1.5-0.9,2.8-1.7,3.9
				c-0.8,1.1-1.8,2-3.2,2.6c-1.3,0.6-2.9,0.9-4.7,0.9c-1,0-2.2-0.2-3.6-0.5l0.2-2.1c1,0.5,2.3,0.7,3.7,0.7c1.8,0,3.3-0.4,4.5-1.3
				c1.1-0.9,2-2,2.4-3.4c0.5-1.4,0.7-2.9,0.7-4.6h-0.1c-0.5,0.9-1.3,1.6-2.2,2.1c-0.9,0.5-2,0.7-3,0.7c-1.1,0-2.2-0.2-3.3-0.6
				c-1.1-0.4-1.9-1.2-2.6-2.2s-1.1-2.4-1.1-4.2c0-1.5,0.3-2.8,0.9-3.9s1.4-2,2.5-2.6C103.1,1.1,104.5,0.8,106,0.8z M105.6,13.3
				c1.6,0,2.8-0.5,3.7-1.4c0.9-0.9,1.4-2.1,1.4-3.6c0-1-0.2-1.9-0.5-2.7c-0.4-0.8-0.9-1.5-1.6-2.1c-0.7-0.5-1.6-0.8-2.7-0.8
				s-2,0.2-2.7,0.7c-0.8,0.5-1.3,1.1-1.7,1.9c-0.4,0.8-0.6,1.7-0.6,2.7c0,1.7,0.4,3,1.2,3.9C102.9,12.8,104.1,13.3,105.6,13.3z"/>
			<path class="st0" d="M123.9,0.8c2.7,0,4.6,1,5.6,3s1.6,4.5,1.6,7.7c0,1.8-0.2,3.4-0.5,4.9c-0.4,1.5-0.9,2.8-1.7,3.9
				s-1.8,2-3.2,2.6c-1.3,0.6-2.9,0.9-4.7,0.9c-1,0-2.2-0.2-3.6-0.5l0.2-2.1c1,0.5,2.3,0.7,3.7,0.7c1.8,0,3.3-0.4,4.5-1.3
				c1.1-0.9,2-2,2.4-3.4c0.5-1.4,0.7-2.9,0.7-4.6h-0.1c-0.5,0.9-1.3,1.6-2.2,2.1c-0.9,0.5-2,0.7-3,0.7c-1.1,0-2.2-0.2-3.3-0.6
				c-1.1-0.4-1.9-1.2-2.6-2.2s-1.1-2.4-1.1-4.2c0-1.5,0.3-2.8,0.9-3.9s1.4-2,2.5-2.6C121.1,1.1,122.4,0.8,123.9,0.8z M123.5,13.3
				c1.6,0,2.8-0.5,3.7-1.4s1.4-2.1,1.4-3.6c0-1-0.2-1.9-0.5-2.7c-0.4-0.8-0.9-1.5-1.6-2.1c-0.7-0.5-1.6-0.8-2.7-0.8s-2,0.2-2.7,0.7
				c-0.8,0.5-1.3,1.1-1.7,1.9C119,6.1,118.8,7,118.8,8c0,1.7,0.4,3,1.2,3.9C120.8,12.8,122,13.3,123.5,13.3z"/>
			<path class="st0" d="M137.3,23.5l9-20.6h-11.5V1h13.7v2l-8.7,20.6h-2.5V23.5z"/>
		</g>
		<path class="st0" d="M466.6,45.8h-43.5v27c2,3.7,3.7,7.5,5.2,11.5c3.7,10.3,5.4,21,5.4,31.9s-1.7,21.7-5.4,32
			c-1.4,4-3.1,7.8-5.2,11.5v26.5h43.5v-75.1c0-20.5,11.9-36.2,30.2-36.2c13.6,0,21.4,11,21.4,25.1v86.1h43.6v-91
			c0-25-9.7-45-31.1-50.8c-21.5-5.8-48.5-2.6-64.1,24.4V45.8z"/>
		<path class="st0" d="M346.9,190.3c-11.9,0-22.5-1.9-32-5.8c-9.5-3.9-17.4-9.3-23.8-16.2c-6.4-6.8-11.2-14.7-14.6-23.6
			c-3.2-8.9-4.8-18.4-4.8-28.5c0-9.9,1.6-19.2,4.8-28.2c3.2-9,8-16.9,14.4-23.8s14.3-12.3,23.6-16.2c9.5-3.9,20.2-5.8,32.4-5.8
			c12.1,0,22.9,1.9,32.4,5.8c9.5,4,17.3,9.4,23.6,16.2c6.4,6.8,11.2,14.7,14.4,23.6c3.2,8.9,4.8,18.4,4.8,28.4s-1.6,19.5-4.8,28.5
			c-3.2,8.9-8,16.8-14.4,23.6s-14.3,12.2-23.6,16C369.8,188.3,359,190.3,346.9,190.3L346.9,190.3z M346.9,156.7
			c5.5,0,10.9-1.3,16.2-4c5.3-2.7,9.8-7.1,13.4-13.2c3.5-6,5.2-13.8,5.2-23.2s-1.7-17.2-5.2-23.4c-3.6-6-8-10.3-13.4-13
			c-5.3-2.7-10.7-4-16.2-4c-5.4,0-10.7,1.3-16,4c-5.4,2.7-9.9,7.1-13.4,13.2c-3.6,6-5.4,13.7-5.4,23.2c0,13.7,3.6,23.9,10.8,30.5
			C330.1,153.4,338.1,156.7,346.9,156.7z"/>
		<path class="st0" d="M294.8,186.3H160.6c21.5-35.5,43-71,64.4-106.5h-42.8L162,46.2h123.2c-21,35.5-42,71-63,106.5h44.3
			C273.4,167.8,283.1,178.5,294.8,186.3z"/>
		<path class="st0" d="M0,46.6h45.3v139.8H0C0,90.9,0,108,0,46.6z"/>
		<polygon class="st0" points="85.9,186.7 85.9,79.9 56.7,79.9 56.7,46.5 149,46.5 169,79.9 131.3,79.9 131.3,186.7 		"/>
		<path class="st0" d="M648.2,190.3c-11.9,0-22.5-1.9-32-5.8c-9.5-3.9-17.4-9.3-23.8-16.2c-6.4-6.8-11.2-14.7-14.6-23.6
			c-3.2-8.9-4.8-18.4-4.8-28.4c0-9.9,1.6-19.2,4.8-28.2s8-16.9,14.4-23.9c6.4-6.9,14.3-12.3,23.6-16.2c9.5-3.9,20.2-5.8,32.4-5.8
			c12.1,0,23,1.9,32.4,5.8c9.5,4,17.3,9.4,23.6,16.2c6.4,6.8,11.2,14.7,14.4,23.6s4.8,18.4,4.8,28.4c0,3.7-0.2,7.4-0.7,11h-25.2
			h-15.4h-67.9c1.5,8.3,4.8,14.8,9.9,19.5c7.2,6.7,15.2,10,24,10c5.5,0,10.9-1.3,16.2-4c4.3-2.1,8-5.4,11.1-9.7h43.7
			c-0.2,0.6-0.4,1.1-0.6,1.7c-3.2,8.9-8,16.8-14.4,23.6s-14.3,12.2-23.6,16C671.1,188.3,660.3,190.3,648.2,190.3L648.2,190.3z
			 M680.9,100.3c-0.8-2.7-1.9-5.2-3.1-7.4c-3.6-6-8-10.3-13.4-13c-5.3-2.7-10.7-4-16.2-4c-5.4,0-10.7,1.3-16,4
			c-5.4,2.7-9.9,7.1-13.4,13.2c-1.3,2.2-2.4,4.6-3.2,7.2C615.6,100.3,680.9,100.3,680.9,100.3z"/>
		<g id="Shape_1_10_">
			<g>
				<path class="st0" d="M731.6,56.6L731.6,56.6c1.5-0.6,2.8-1.9,2.8-3.8c0-1.1-0.4-2.1-1.2-2.8c-0.9-0.8-2.2-1.2-4.2-1.2
					c-1.3,0-2.7,0.1-3.6,0.3v14.4h1.9v-6.3h1.8c1.7,0.1,2.5,0.8,2.9,2.8c0.4,1.8,0.7,3.1,1,3.5h1.9c-0.3-0.6-0.6-2-1.1-4
					C733.4,58,732.7,57,731.6,56.6z M729.2,55.8h-1.9v-5.3c0.3-0.1,1-0.2,1.9-0.2c2,0,3.4,0.8,3.4,2.7
					C732.5,54.7,731.2,55.8,729.2,55.8z M740.8,49.6c-1.2-2.1-2.8-3.7-4.9-4.8c-2.1-1.1-4.2-1.7-6.4-1.7s-4.3,0.6-6.4,1.7
					c-2.1,1.1-3.7,2.7-4.9,4.8s-1.8,4.3-1.8,6.6s0.6,4.4,1.7,6.5c1.2,2.1,2.8,3.7,4.8,4.8c2.1,1.1,4.2,1.7,6.5,1.7s4.4-0.6,6.5-1.7
					s3.7-2.8,4.8-4.8c1.1-2.1,1.7-4.2,1.7-6.5C742.6,53.9,742,51.7,740.8,49.6z M739,61.6c-1,1.7-2.3,3.1-4,4
					c-1.7,1-3.5,1.4-5.4,1.4s-3.7-0.5-5.4-1.4c-1.7-1-3.1-2.3-4-4c-1-1.7-1.4-3.5-1.4-5.4s0.5-3.7,1.5-5.5c1-1.7,2.3-3.1,4.1-4
					c1.7-0.9,3.5-1.4,5.4-1.4c1.8,0,3.6,0.5,5.3,1.4s3.1,2.3,4.1,4s1.5,3.6,1.5,5.5C740.4,58.1,739.9,59.9,739,61.6z"/>
			</g>
		</g>
		<g>
			<path class="st0" d="M0.9,270.7l20.2-49.3h5.5l19.6,49.3h-5.1l-5.3-13.2H10.9l-5.3,13.2H0.9z M34.2,253.2L23.5,226l-10.7,27.2
				H34.2z"/>
			<path class="st0" d="M76.5,235.2l-0.4,4.2c-2.8-1.2-5.3-1.8-7.7-1.8c-2.8,0-5.3,0.6-7.3,1.9c-2,1.3-3.6,3.1-4.7,5.3
				c-1.1,2.3-1.6,4.9-1.6,7.8c0,2,0.3,4,0.9,5.8c0.6,1.8,1.5,3.4,2.6,4.8s2.5,2.5,4.1,3.2c1.6,0.8,3.4,1.2,5.4,1.2
				c2.5,0,5.2-0.5,8.1-1.6l0.4,4.2c-2.4,0.9-5.5,1.3-9.3,1.3c-2.8,0-5.3-0.5-7.4-1.5c-2.2-1-4-2.4-5.4-4.1c-1.5-1.7-2.5-3.8-3.3-6.1
				c-0.7-2.3-1.1-4.7-1.1-7.2c0-3.6,0.7-6.9,2.2-9.8c1.5-2.9,3.6-5.1,6.3-6.7c2.7-1.6,5.8-2.4,9.3-2.4
				C70.8,233.8,73.7,234.3,76.5,235.2z"/>
			<path class="st0" d="M107.9,235.2l-0.4,4.2c-2.8-1.2-5.3-1.8-7.7-1.8c-2.8,0-5.3,0.6-7.3,1.9c-2,1.3-3.6,3.1-4.7,5.3
				c-1.1,2.3-1.6,4.9-1.6,7.8c0,2,0.3,4,0.9,5.8c0.6,1.8,1.5,3.4,2.6,4.8s2.5,2.5,4.1,3.2c1.6,0.8,3.4,1.2,5.4,1.2
				c2.5,0,5.2-0.5,8.1-1.6l0.4,4.2c-2.4,0.9-5.5,1.3-9.3,1.3c-2.8,0-5.3-0.5-7.4-1.5c-2.2-1-4-2.4-5.4-4.1c-1.5-1.7-2.5-3.8-3.3-6.1
				c-0.7-2.3-1.1-4.7-1.1-7.2c0-3.6,0.7-6.9,2.2-9.8c1.5-2.9,3.6-5.1,6.3-6.7c2.7-1.6,5.8-2.4,9.3-2.4
				C102.2,233.8,105.1,234.3,107.9,235.2z"/>
			<path class="st0" d="M139.6,265v4.5c-3.2,1.3-6.7,2-10.4,2c-5.7,0-9.8-1.7-12.4-5.1s-3.9-8-3.9-13.7c0-3.6,0.6-6.9,1.9-9.7
				c1.3-2.9,3-5.1,5.3-6.7c2.3-1.6,4.9-2.4,7.9-2.4c4.8,0,8.4,1.7,10.8,5c2.4,3.3,3.6,7.6,3.6,12.9v2.3h-24.6c0,2.6,0.5,4.9,1.4,7
				s2.3,3.7,4.1,4.9c1.8,1.2,3.9,1.8,6.4,1.8c1.6,0,3.4-0.3,5.4-0.8C137,266.3,138.5,265.7,139.6,265z M117.6,250.1h19.8
				c0-2.2-0.3-4.3-0.9-6.2c-0.6-1.9-1.6-3.4-3-4.6c-1.4-1.2-3.1-1.8-5.2-1.8c-2.1,0-3.9,0.6-5.6,1.8c-1.6,1.2-2.9,2.8-3.7,4.7
				C118.1,246.1,117.6,248.1,117.6,250.1z"/>
			<path class="st0" d="M150.8,270.7v-53h4.4v53H150.8z"/>
			<path class="st0" d="M190.6,265v4.5c-3.2,1.3-6.7,2-10.4,2c-5.7,0-9.8-1.7-12.4-5.1c-2.6-3.4-3.9-8-3.9-13.7
				c0-3.6,0.6-6.9,1.9-9.7c1.3-2.9,3-5.1,5.3-6.7c2.3-1.6,4.9-2.4,7.9-2.4c4.8,0,8.4,1.7,10.8,5c2.4,3.3,3.6,7.6,3.6,12.9v2.3h-24.6
				c0,2.6,0.5,4.9,1.4,7s2.3,3.7,4.1,4.9c1.8,1.2,3.9,1.8,6.4,1.8c1.6,0,3.4-0.3,5.4-0.8C187.9,266.3,189.5,265.7,190.6,265z
				 M168.6,250.1h19.8c0-2.2-0.3-4.3-0.9-6.2c-0.6-1.9-1.6-3.4-3-4.6c-1.4-1.2-3.1-1.8-5.2-1.8c-2.1,0-3.9,0.6-5.6,1.8
				c-1.6,1.2-2.9,2.8-3.7,4.7C169.1,246.1,168.6,248.1,168.6,250.1z"/>
			<path class="st0" d="M201.7,270.7v-28c0-3.6-0.1-6.3-0.3-8h4.4v6.9h0.1c0.9-2.3,2.2-4.1,3.7-5.6c1.6-1.5,3.4-2.2,5.5-2.2
				c1,0,2.1,0.1,3.1,0.4v4.7c-0.9-0.3-2-0.4-3.2-0.4c-2.2,0-4,0.7-5.3,2.1c-1.3,1.4-2.3,3.2-2.8,5.4s-0.8,4.5-0.8,6.9v17.8
				L201.7,270.7L201.7,270.7z"/>
			<path class="st0" d="M245.9,270.7v-5.8h-0.1c-0.9,2.1-2.5,3.7-4.7,4.9c-2.2,1.2-4.4,1.8-6.8,1.8c-3.1,0-5.6-0.6-7.3-1.7
				c-1.8-1.1-3-2.5-3.6-4s-0.9-3-0.9-4.4c0-2.8,0.7-5.1,2-6.9c1.3-1.7,3.1-3,5.3-3.8s4.4-1.3,6.8-1.6c2.4-0.2,5.1-0.3,8.1-0.3h0.8
				v-1.8c0-3.2-0.6-5.5-1.9-7c-1.3-1.5-3.4-2.3-6.3-2.3c-4,0-7.5,1-10.6,3v-4.3c1.4-0.7,3.1-1.3,5.2-1.7c2-0.5,3.8-0.7,5.4-0.7
				c3,0,5.4,0.5,7.2,1.4c1.9,0.9,3.2,2.4,4.1,4.3c0.9,2,1.3,4.5,1.3,7.7v15.9c0,3.4,0.1,5.9,0.4,7.6h-4.4V270.7z M245.5,254.7v-2.2
				h-1.3c-5,0-9.1,0.6-12.2,1.7c-3.1,1.1-4.7,3.5-4.7,7c0,2.2,0.7,3.9,2.1,4.9c1.4,1,3.2,1.6,5.4,1.6c4.5,0,7.4-1.3,8.7-4
				C244.9,261.1,245.5,258.1,245.5,254.7z"/>
			<path class="st0" d="M276.1,234.6v3.8h-8.2v23.3c0,4,1.6,5.9,4.8,5.9c1.2,0,2.6-0.3,4.1-0.8l0.3,3.7c-1.7,0.7-3.5,1-5.4,1
				c-2.5,0-4.3-0.5-5.5-1.5s-1.9-2.3-2.2-4c-0.3-1.6-0.4-3.8-0.4-6.5v-21h-7.1v-3.8h7.1V226l4.4-1.6v10.2L276.1,234.6L276.1,234.6z"
				/>
			<path class="st0" d="M308.2,265v4.5c-3.2,1.3-6.7,2-10.4,2c-5.7,0-9.8-1.7-12.4-5.1s-3.9-8-3.9-13.7c0-3.6,0.6-6.9,1.9-9.7
				c1.3-2.9,3-5.1,5.3-6.7c2.3-1.6,4.9-2.4,7.9-2.4c4.8,0,8.4,1.7,10.8,5s3.6,7.6,3.6,12.9v2.3h-24.6c0,2.6,0.5,4.9,1.4,7
				s2.3,3.7,4.1,4.9c1.8,1.2,3.9,1.8,6.4,1.8c1.6,0,3.4-0.3,5.4-0.8C305.6,266.3,307.1,265.7,308.2,265z M286.2,250.1H306
				c0-2.2-0.3-4.3-0.9-6.2s-1.6-3.4-3-4.6c-1.4-1.2-3.1-1.8-5.2-1.8s-3.9,0.6-5.6,1.8c-1.6,1.2-2.9,2.8-3.7,4.7
				C286.7,246.1,286.2,248.1,286.2,250.1z"/>
			<path class="st0" d="M352.5,270.7v-20.9l-18.3-28.4h5.7l15,24.1l15.5-24.1h5.3l-18.3,28.4v20.9H352.5z"/>
			<path class="st0" d="M379.4,252.7c0-3.4,0.6-6.5,1.8-9.4c1.2-2.9,3.1-5.2,5.6-6.9s5.7-2.6,9.3-2.6c3.7,0,6.8,0.9,9.3,2.6
				c2.5,1.7,4.4,4,5.6,6.9s1.8,6,1.8,9.4c0,2.5-0.3,4.9-1,7.2s-1.7,4.3-3.1,6s-3.1,3.1-5.3,4.1c-2.1,1-4.6,1.5-7.4,1.5
				c-3.7,0-6.8-0.9-9.3-2.6s-4.4-4-5.6-6.9C380,259.2,379.4,256.1,379.4,252.7z M384.2,252.7c0,2.8,0.5,5.3,1.4,7.6s2.3,4.1,4.1,5.4
				c1.8,1.3,4,2,6.5,2s4.7-0.7,6.5-2s3.2-3.1,4.1-5.4s1.4-4.8,1.4-7.6s-0.5-5.4-1.4-7.6c-0.9-2.3-2.3-4.1-4.1-5.4
				c-1.8-1.3-4-2-6.5-2s-4.6,0.7-6.5,2c-1.8,1.3-3.2,3.1-4.1,5.4C384.7,247.3,384.2,249.9,384.2,252.7z"/>
			<path class="st0" d="M449.5,234.6v27.5c0,3.7,0.1,6.5,0.3,8.5h-4.3v-6.4h-0.1c-1,2.1-2.3,3.9-4.1,5.2c-1.7,1.4-4.3,2-7.6,2
				c-4.2,0-7.3-1.3-9.3-3.8s-3-5.9-3-10.1v-23h4.4v21.9c0,7.4,2.8,11.2,8.5,11.2c2.5,0,4.6-0.6,6.2-1.9s2.8-2.9,3.4-4.9
				c0.7-2,1-4.1,1-6.3v-19.9L449.5,234.6L449.5,234.6z"/>
			<path class="st0" d="M460.6,270.7v-28c0-3.6-0.1-6.3-0.3-8h4.4v6.9h0.1c0.9-2.3,2.2-4.1,3.7-5.6c1.6-1.5,3.4-2.2,5.5-2.2
				c1,0,2.1,0.1,3.1,0.4v4.7c-0.9-0.3-2-0.4-3.2-0.4c-2.2,0-4,0.7-5.3,2.1c-1.3,1.4-2.3,3.2-2.8,5.4s-0.8,4.5-0.8,6.9v17.8
				L460.6,270.7L460.6,270.7z"/>
			<path class="st0" d="M502.4,269.4l0.5-5c3,1.9,6.7,2.9,10.9,2.9c2.1,0,4-0.4,5.6-1.1c1.7-0.7,3-1.9,4-3.4s1.5-3.4,1.5-5.6
				c0-2.1-0.9-3.9-2.6-5.2c-1.7-1.4-4.5-3.1-8.4-5.3c-3.8-2.1-6.7-4.2-8.7-6.1c-1.9-1.9-2.9-4.3-2.9-7.2c0-2.6,0.7-4.8,2.1-6.8
				s3.3-3.5,5.6-4.5c2.4-1,5-1.6,7.9-1.6c3.6,0,6.8,0.5,9.7,1.6l-0.8,4.4c-2.2-1.2-5.2-1.8-9-1.8c-2.9,0-5.5,0.7-7.5,2
				c-2.1,1.4-3.1,3.5-3.1,6.4c0,2.2,0.8,3.9,2.5,5.1c1.7,1.3,4.4,3,8.3,5.1s6.8,4.2,8.8,6.2s3,4.7,3,7.9c0,3.1-0.8,5.7-2.3,7.8
				c-1.6,2.1-3.6,3.6-6.1,4.6s-5.1,1.5-7.8,1.5C509.4,271.5,505.7,270.8,502.4,269.4z"/>
			<path class="st0" d="M567.2,234.6v27.5c0,3.7,0.1,6.5,0.3,8.5h-4.3v-6.4H563c-1,2.1-2.3,3.9-4.1,5.2c-1.7,1.4-4.3,2-7.6,2
				c-4.2,0-7.3-1.3-9.3-3.8s-3-5.9-3-10.1v-23h4.4v21.9c0,7.4,2.8,11.2,8.5,11.2c2.5,0,4.6-0.6,6.2-1.9c1.6-1.3,2.8-2.9,3.4-4.9
				c0.7-2,1-4.1,1-6.3v-19.9L567.2,234.6L567.2,234.6z"/>
			<path class="st0" d="M602.1,235.2l-0.4,4.2c-2.8-1.2-5.3-1.8-7.7-1.8c-2.8,0-5.3,0.6-7.3,1.9c-2,1.3-3.6,3.1-4.7,5.3
				c-1.1,2.3-1.6,4.9-1.6,7.8c0,2,0.3,4,0.9,5.8c0.6,1.8,1.5,3.4,2.6,4.8s2.5,2.5,4.1,3.2c1.6,0.8,3.4,1.2,5.4,1.2
				c2.5,0,5.2-0.5,8.1-1.6l0.4,4.2c-2.4,0.9-5.5,1.3-9.3,1.3c-2.8,0-5.3-0.5-7.4-1.5c-2.2-1-4-2.4-5.4-4.1c-1.5-1.7-2.5-3.8-3.3-6.1
				c-0.7-2.3-1.1-4.7-1.1-7.2c0-3.6,0.7-6.9,2.2-9.8c1.5-2.9,3.6-5.1,6.3-6.7c2.7-1.6,5.8-2.4,9.3-2.4
				C596.4,233.8,599.3,234.3,602.1,235.2z"/>
			<path class="st0" d="M633.5,235.2l-0.4,4.2c-2.8-1.2-5.3-1.8-7.7-1.8c-2.8,0-5.3,0.6-7.3,1.9c-2,1.3-3.6,3.1-4.7,5.3
				c-1.1,2.3-1.6,4.9-1.6,7.8c0,2,0.3,4,0.9,5.8c0.6,1.8,1.5,3.4,2.6,4.8s2.5,2.5,4.1,3.2c1.6,0.8,3.4,1.2,5.4,1.2
				c2.5,0,5.2-0.5,8.1-1.6l0.4,4.2c-2.4,0.9-5.5,1.3-9.3,1.3c-2.8,0-5.3-0.5-7.4-1.5c-2.2-1-4-2.4-5.4-4.1s-2.5-3.8-3.3-6.1
				c-0.7-2.3-1.1-4.7-1.1-7.2c0-3.6,0.7-6.9,2.2-9.8c1.5-2.9,3.6-5.1,6.3-6.7c2.7-1.6,5.8-2.4,9.3-2.4
				C627.8,233.8,630.7,234.3,633.5,235.2z"/>
			<path class="st0" d="M665.2,265v4.5c-3.2,1.3-6.7,2-10.4,2c-5.7,0-9.8-1.7-12.4-5.1c-2.6-3.4-3.9-8-3.9-13.7
				c0-3.6,0.6-6.9,1.9-9.7c1.3-2.9,3-5.1,5.3-6.7c2.3-1.6,4.9-2.4,7.9-2.4c4.8,0,8.4,1.7,10.8,5c2.4,3.3,3.6,7.6,3.6,12.9v2.3h-24.6
				c0,2.6,0.5,4.9,1.4,7s2.3,3.7,4.1,4.9s3.9,1.8,6.4,1.8c1.6,0,3.4-0.3,5.4-0.8C662.5,266.3,664.1,265.7,665.2,265z M643.2,250.1
				H663c0-2.2-0.3-4.3-0.9-6.2c-0.6-1.9-1.6-3.4-3-4.6c-1.4-1.2-3.1-1.8-5.2-1.8c-2.1,0-3.9,0.6-5.6,1.8c-1.6,1.2-2.9,2.8-3.7,4.7
				C643.7,246.1,643.2,248.1,643.2,250.1z"/>
			<path class="st0" d="M673.2,269.8l0.4-4.4c3,1.5,6.1,2.3,9.4,2.3c2.2,0,4.1-0.6,5.6-1.7c1.6-1.2,2.3-2.7,2.3-4.7
				c0-1.9-0.7-3.4-2.1-4.4c-1.4-1.1-3.5-2.3-6.4-3.7s-5.1-2.7-6.6-4.1c-1.5-1.3-2.2-3.2-2.2-5.5s0.5-4.1,1.6-5.6s2.5-2.5,4.3-3.2
				s3.7-1,5.8-1c1.2,0,2.6,0.1,4.2,0.4c1.6,0.3,3.2,0.7,4.7,1.2l-0.4,3.9c-2.5-1.1-5.1-1.7-8-1.7c-5.2,0-7.8,2-7.8,6
				c0,1.5,0.6,2.5,1.7,3.2c1.1,0.7,3.3,1.8,6.5,3.3s5.6,3.1,7.2,4.7c1.6,1.6,2.4,3.7,2.4,6.4c0,2.4-0.6,4.3-1.9,5.9
				c-1.3,1.5-2.9,2.7-4.8,3.3c-1.9,0.7-3.9,1-5.9,1C679.3,271.5,676,270.9,673.2,269.8z"/>
			<path class="st0" d="M700.6,269.8l0.4-4.4c3,1.5,6.1,2.3,9.4,2.3c2.2,0,4.1-0.6,5.6-1.7c1.6-1.2,2.3-2.7,2.3-4.7
				c0-1.9-0.7-3.4-2.1-4.4c-1.4-1.1-3.5-2.3-6.4-3.7s-5.1-2.7-6.6-4.1c-1.5-1.3-2.2-3.2-2.2-5.5s0.5-4.1,1.6-5.6s2.5-2.5,4.3-3.2
				s3.7-1,5.8-1c1.2,0,2.6,0.1,4.2,0.4c1.6,0.3,3.2,0.7,4.7,1.2l-0.4,3.9c-2.5-1.1-5.1-1.7-8-1.7c-5.2,0-7.8,2-7.8,6
				c0,1.5,0.6,2.5,1.7,3.2c1.1,0.7,3.3,1.8,6.5,3.3s5.6,3.1,7.2,4.7c1.6,1.6,2.4,3.7,2.4,6.4c0,2.4-0.6,4.3-1.9,5.9
				c-1.3,1.5-2.9,2.7-4.8,3.3c-1.9,0.7-3.9,1-5.9,1C706.8,271.5,703.4,270.9,700.6,269.8z"/>
		</g>
	</g>
</g>
</svg>
